<svg xmlns="http://www.w3.org/2000/svg"
     width="1404px"
     height="1872px"
     viewBox="0 0 1404 1872"
     style="background-color: #fff; color: #111;"
     >

  <g>
    <rect width="1404" height="0.5" y="20"></rect>
    <rect width="1404" height="0.5" y="40"></rect>
    <rect width="1404" height="0.5" y="60"></rect>
    <rect width="1404" height="0.5" y="80"></rect>
    <rect width="1404" height="1" y="100"></rect>
    <rect width="1404" height="0.5" y="120"></rect>
    <rect width="1404" height="0.5" y="140"></rect>
    <rect width="1404" height="0.5" y="160"></rect>
    <rect width="1404" height="0.5" y="180"></rect>
    <rect width="1404" height="1" y="200"></rect>
    <rect width="1404" height="0.5" y="220"></rect>
    <rect width="1404" height="0.5" y="240"></rect>
    <rect width="1404" height="0.5" y="260"></rect>
    <rect width="1404" height="0.5" y="280"></rect>
    <rect width="1404" height="1" y="300"></rect>
    <rect width="1404" height="0.5" y="320"></rect>
    <rect width="1404" height="0.5" y="340"></rect>
    <rect width="1404" height="0.5" y="360"></rect>
    <rect width="1404" height="0.5" y="380"></rect>
    <rect width="1404" height="1" y="400"></rect>
    <rect width="1404" height="0.5" y="420"></rect>
    <rect width="1404" height="0.5" y="440"></rect>
    <rect width="1404" height="0.5" y="460"></rect>
    <rect width="1404" height="0.5" y="480"></rect>
    <rect width="1404" height="1" y="500"></rect>
    <rect width="1404" height="0.5" y="520"></rect>
    <rect width="1404" height="0.5" y="540"></rect>
    <rect width="1404" height="0.5" y="560"></rect>
    <rect width="1404" height="0.5" y="580"></rect>
    <rect width="1404" height="1" y="600"></rect>
    <rect width="1404" height="0.5" y="620"></rect>
    <rect width="1404" height="0.5" y="640"></rect>
    <rect width="1404" height="0.5" y="660"></rect>
    <rect width="1404" height="0.5" y="680"></rect>
    <rect width="1404" height="1" y="700"></rect>
    <rect width="1404" height="0.5" y="720"></rect>
    <rect width="1404" height="0.5" y="740"></rect>
    <rect width="1404" height="0.5" y="760"></rect>
    <rect width="1404" height="0.5" y="780"></rect>
    <rect width="1404" height="1" y="800"></rect>
    <rect width="1404" height="0.5" y="820"></rect>
    <rect width="1404" height="0.5" y="840"></rect>
    <rect width="1404" height="0.5" y="860"></rect>
    <rect width="1404" height="0.5" y="880"></rect>
    <rect width="1404" height="1" y="900"></rect>
    <rect width="1404" height="0.5" y="920"></rect>
    <rect width="1404" height="0.5" y="940"></rect>
    <rect width="1404" height="0.5" y="960"></rect>
    <rect width="1404" height="0.5" y="980"></rect>
    <rect width="1404" height="1" y="1000"></rect>
    <rect width="1404" height="0.5" y="1020"></rect>
    <rect width="1404" height="0.5" y="1040"></rect>
    <rect width="1404" height="0.5" y="1060"></rect>
    <rect width="1404" height="0.5" y="1080"></rect>
    <rect width="1404" height="1" y="1100"></rect>
    <rect width="1404" height="0.5" y="1120"></rect>
    <rect width="1404" height="0.5" y="1140"></rect>
    <rect width="1404" height="0.5" y="1160"></rect>
    <rect width="1404" height="0.5" y="1180"></rect>
    <rect width="1404" height="1" y="1200"></rect>
    <rect width="1404" height="0.5" y="1220"></rect>
    <rect width="1404" height="0.5" y="1240"></rect>
    <rect width="1404" height="0.5" y="1260"></rect>
    <rect width="1404" height="0.5" y="1280"></rect>
    <rect width="1404" height="1" y="1300"></rect>
    <rect width="1404" height="0.5" y="1320"></rect>
    <rect width="1404" height="0.5" y="1340"></rect>
    <rect width="1404" height="0.5" y="1360"></rect>
    <rect width="1404" height="0.5" y="1380"></rect>
    <rect width="1404" height="1" y="1400"></rect>
    <rect width="1404" height="0.5" y="1420"></rect>
    <rect width="1404" height="0.5" y="1440"></rect>
    <rect width="1404" height="0.5" y="1460"></rect>
    <rect width="1404" height="0.5" y="1480"></rect>
    <rect width="1404" height="1" y="1500"></rect>
    <rect width="1404" height="0.5" y="1520"></rect>
    <rect width="1404" height="0.5" y="1540"></rect>
    <rect width="1404" height="0.5" y="1560"></rect>
    <rect width="1404" height="0.5" y="1580"></rect>
    <rect width="1404" height="1" y="1600"></rect>
    <rect width="1404" height="0.5" y="1620"></rect>
    <rect width="1404" height="0.5" y="1640"></rect>
    <rect width="1404" height="0.5" y="1660"></rect>
    <rect width="1404" height="0.5" y="1680"></rect>
    <rect width="1404" height="1" y="1700"></rect>
    <rect width="1404" height="0.5" y="1720"></rect>
    <rect width="1404" height="0.5" y="1740"></rect>
    <rect width="1404" height="0.5" y="1760"></rect>
    <rect width="1404" height="0.5" y="1780"></rect>
    <rect width="1404" height="1" y="1800"></rect>

    <rect width="0.5" height="1800" x="20"></rect>
    <rect width="0.5" height="1800" x="40"></rect>
    <rect width="0.5" height="1800" x="60"></rect>
    <rect width="0.5" height="1800" x="80"></rect>
    <rect width="1" height="1800" x="100"></rect>
    <rect width="0.5" height="1800" x="120"></rect>
    <rect width="0.5" height="1800" x="140"></rect>
    <rect width="0.5" height="1800" x="160"></rect>
    <rect width="0.5" height="1800" x="180"></rect>
    <rect width="1" height="1800" x="200"></rect>
    <rect width="0.5" height="1800" x="220"></rect>
    <rect width="0.5" height="1800" x="240"></rect>
    <rect width="0.5" height="1800" x="260"></rect>
    <rect width="0.5" height="1800" x="280"></rect>
    <rect width="1" height="1800" x="300"></rect>
    <rect width="0.5" height="1800" x="320"></rect>
    <rect width="0.5" height="1800" x="340"></rect>
    <rect width="0.5" height="1800" x="360"></rect>
    <rect width="0.5" height="1800" x="380"></rect>
    <rect width="1" height="1800" x="400"></rect>
    <rect width="0.5" height="1800" x="420"></rect>
    <rect width="0.5" height="1800" x="440"></rect>
    <rect width="0.5" height="1800" x="460"></rect>
    <rect width="0.5" height="1800" x="480"></rect>
    <rect width="1" height="1800" x="500"></rect>
    <rect width="0.5" height="1800" x="520"></rect>
    <rect width="0.5" height="1800" x="540"></rect>
    <rect width="0.5" height="1800" x="560"></rect>
    <rect width="0.5" height="1800" x="580"></rect>
    <rect width="1" height="1800" x="600"></rect>
    <rect width="0.5" height="1800" x="620"></rect>
    <rect width="0.5" height="1800" x="640"></rect>
    <rect width="0.5" height="1800" x="660"></rect>
    <rect width="0.5" height="1800" x="680"></rect>
    <rect width="1" height="1800" x="700"></rect>
    <rect width="0.5" height="1800" x="720"></rect>
    <rect width="0.5" height="1800" x="740"></rect>
    <rect width="0.5" height="1800" x="760"></rect>
    <rect width="0.5" height="1800" x="780"></rect>
    <rect width="1" height="1800" x="800"></rect>
    <rect width="0.5" height="1800" x="820"></rect>
    <rect width="0.5" height="1800" x="840"></rect>
    <rect width="0.5" height="1800" x="860"></rect>
    <rect width="0.5" height="1800" x="880"></rect>
    <rect width="1" height="1800" x="900"></rect>
    <rect width="0.5" height="1800" x="920"></rect>
    <rect width="0.5" height="1800" x="940"></rect>
    <rect width="0.5" height="1800" x="960"></rect>
    <rect width="0.5" height="1800" x="980"></rect>
    <rect width="1" height="1800" x="1000"></rect>
    <rect width="0.5" height="1800" x="1020"></rect>
    <rect width="0.5" height="1800" x="1040"></rect>
    <rect width="0.5" height="1800" x="1060"></rect>
    <rect width="0.5" height="1800" x="1080"></rect>
    <rect width="1" height="1800" x="1100"></rect>
    <rect width="0.5" height="1800" x="1120"></rect>
    <rect width="0.5" height="1800" x="1140"></rect>
    <rect width="0.5" height="1800" x="1160"></rect>
    <rect width="0.5" height="1800" x="1180"></rect>
    <rect width="1" height="1800" x="1200"></rect>
    <rect width="0.5" height="1800" x="1220"></rect>
    <rect width="0.5" height="1800" x="1240"></rect>
    <rect width="0.5" height="1800" x="1260"></rect>
    <rect width="0.5" height="1800" x="1280"></rect>
    <rect width="1" height="1800" x="1300"></rect>
    <rect width="0.5" height="1800" x="1320"></rect>
    <rect width="0.5" height="1800" x="1340"></rect>
    <rect width="0.5" height="1800" x="1360"></rect>
    <rect width="0.5" height="1800" x="1380"></rect>
    <rect width="1" height="1800" x="1400"></rect>
    <rect width="0.5" height="1800" x="1420"></rect>
    <rect width="0.5" height="1800" x="1440"></rect>
    <rect width="0.5" height="1800" x="1460"></rect>
    <rect width="0.5" height="1800" x="1480"></rect>
    <rect height="1800" width="1" x="1500"></rect>
    <rect height="1800" width="0.5" x="1520"></rect>
    <rect height="1800" width="0.5" x="1540"></rect>
    <rect height="1800" width="0.5" x="1560"></rect>
    <rect height="1800" width="0.5" x="1580"></rect>
    <rect height="1800" width="1" x="1600"></rect>
    <rect height="1800" width="0.5" x="1620"></rect>
    <rect height="1800" width="0.5" x="1640"></rect>
    <rect height="1800" width="0.5" x="1660"></rect>
    <rect height="1800" width="0.5" x="1680"></rect>
    <rect height="1800" width="1" x="1700"></rect>
    <rect height="1800" width="0.5" x="1720"></rect>
    <rect height="1800" width="0.5" x="1740"></rect>
    <rect height="1800" width="0.5" x="1760"></rect>
    <rect height="1800" width="0.5" x="1780"></rect>
    <rect height="1800" width="1" x="1800"></rect>
    <rect height="1800" width="0.5" x="1820"></rect>
    <rect height="1800" width="0.5" x="1840"></rect>
    <rect height="1800" width="0.5" x="1860"></rect>
    <rect height="1800" width="0.5" x="1880"></rect>
    <rect height="1800" width="1" x="1900"></rect>
  </g>
  <rect width="1404" height="1800" fill="none" stroke-width="2" stroke="#fff"></rect>
  <text x="330" y="1840" font-size="24px">Name: _________________________  /  Date: _______________</text>
</svg>
